<?xml version="1.0" encoding="UTF-8" standalone="no"?>
<!-- Created with Inkscape (http://www.inkscape.org/) -->
<svg
   xmlns:dc="http://purl.org/dc/elements/1.1/"
   xmlns:cc="http://web.resource.org/cc/"
   xmlns:rdf="http://www.w3.org/1999/02/22-rdf-syntax-ns#"
   xmlns:svg="http://www.w3.org/2000/svg"
   xmlns="http://www.w3.org/2000/svg"
   xmlns:sodipodi="http://inkscape.sourceforge.net/DTD/sodipodi-0.dtd"
   xmlns:inkscape="http://www.inkscape.org/namespaces/inkscape"
   version="1.0"
   width="744.09448"
   height="1052.3622"
   id="svg2"
   sodipodi:version="0.32"
   inkscape:version="0.43"
   sodipodi:docname="VLBI.svg"
   sodipodi:docbase="/jop54_0/kruithof/svn/branches/INGRID08/img">
  <metadata
     id="metadata106">
    <rdf:RDF>
      <cc:Work
         rdf:about="">
        <dc:format>image/svg+xml</dc:format>
        <dc:type
           rdf:resource="http://purl.org/dc/dcmitype/StillImage" />
      </cc:Work>
    </rdf:RDF>
  </metadata>
  <sodipodi:namedview
     inkscape:window-height="976"
     inkscape:window-width="1280"
     inkscape:pageshadow="2"
     inkscape:pageopacity="0.0"
     borderopacity="1.0"
     bordercolor="#666666"
     pagecolor="#ffffff"
     id="base"
     inkscape:showpageshadow="false"
     showborder="false"
     showgrid="true"
     inkscape:grid-bbox="false"
     inkscape:grid-points="false"
     inkscape:guide-points="true"
     gridspacingx="10px"
     gridspacingy="10px"
     gridtolerance="5px"
     inkscape:zoom="1.051103"
     inkscape:cx="440.49806"
     inkscape:cy="719.07775"
     inkscape:window-x="0"
     inkscape:window-y="0"
     inkscape:current-layer="svg2"
     showguides="true"
     inkscape:guide-bbox="true" />
  <defs
     id="defs4">
    <marker
       inkscape:stockid="Arrow1Lend"
       orient="auto"
       refY="0.0"
       refX="0.0"
       id="Arrow1Lend"
       style="overflow:visible;">
      <path
         id="path5243"
         d="M 0.0,0.0 L 5.0,-5.0 L -12.5,0.0 L 5.0,5.0 L 0.0,0.0 z "
         style="fill-rule:evenodd;stroke:#000000;stroke-width:1.0pt;marker-start:none;"
         transform="scale(0.8) rotate(180)" />
    </marker>
    <marker
       inkscape:stockid="Arrow1Lstart"
       orient="auto"
       refY="0.0"
       refX="0.0"
       id="Arrow1Lstart"
       style="overflow:visible">
      <path
         id="path5246"
         d="M 0.0,0.0 L 5.0,-5.0 L -12.5,0.0 L 5.0,5.0 L 0.0,0.0 z "
         style="fill-rule:evenodd;stroke:#000000;stroke-width:1.0pt;marker-start:none"
         transform="scale(0.8)" />
    </marker>
  </defs>
  <flowRoot
     xml:space="preserve"
     id="flowRoot3284"
     transform="translate(333.9056,274.7566)"><flowRegion
       id="flowRegion3286"><rect
         id="rect3288"
         y="-47.02029"
         x="-86.188522"
         height="86.826958"
         width="161.52367" /></flowRegion><flowPara
       id="flowPara3290" /></flowRoot>  <path
     sodipodi:type="arc"
     style="fill:none;fill-opacity:1;stroke:#000000;stroke-width:0.70700002;stroke-linecap:round;stroke-linejoin:round;stroke-miterlimit:4;stroke-dasharray:none;stroke-dashoffset:0;stroke-opacity:1"
     id="path2238"
     sodipodi:cx="374.87067"
     sodipodi:cy="425.96539"
     sodipodi:rx="224.92239"
     sodipodi:ry="224.92239"
     d="M 166.03341,342.43646 A 224.92239,224.92239 0 0 1 599.79306,425.96539"
     transform="translate(0.951382,1.902763)"
     sodipodi:start="3.5220744"
     sodipodi:end="6.2831853"
     sodipodi:open="true" />
  <g
     id="g5349"
     transform="translate(440.1727,292.3406)">
    <path
       id="path5351"
       style="fill:#ebebeb;fill-opacity:1;stroke:#000000;stroke-width:1;stroke-linecap:round;stroke-linejoin:round;stroke-miterlimit:13.60000038;stroke-dasharray:none;stroke-opacity:1"
       d="M -9.9999994,-120 L -0.31689091,-103.22836 L 9.3662179,-86.456726 L -10,-86.456726 L -29.366219,-86.456727 L -19.683109,-103.22836 L -9.9999994,-120 z " />
    <path
       id="path5353"
       style="fill:none;fill-opacity:1;stroke:#000000;stroke-width:1;stroke-miterlimit:13.60000038;stroke-dasharray:none;stroke-opacity:1"
       transform="translate(-5,-19.5)"
       d="M 30,-122.63782 C 30,-108.8307 18.807119,-97.63782 5,-97.63782 C -8.8071187,-97.63782 -20,-108.8307 -20,-122.63782 C -20,-136.44494 -8.8071187,-147.63782 5,-147.63782 C 18.807119,-147.63782 30,-136.44494 30,-122.63782 z " />
    <rect
       id="rect5355"
       style="fill:#ffffff;fill-opacity:1;stroke:#ffffff;stroke-width:0.64485782;stroke-miterlimit:13.60000038;stroke-dasharray:none;stroke-opacity:1"
       y="-167.63782"
       x="-39.5"
       ry="0"
       rx="9.500001"
       height="20.79208"
       width="60" />
    <rect
       id="rect5357"
       style="fill:#ffffff;fill-opacity:1;stroke:#ffffff;stroke-width:0.562325;stroke-miterlimit:13.60000038;stroke-dasharray:none;stroke-opacity:1"
       y="-167.32918"
       x="9.3083973"
       ry="9.500001"
       rx="9.500001"
       height="49.382717"
       width="20.490368" />
  </g>
  <g
     id="g5359"
     transform="translate(560.2012,348.3189)">
    <path
       id="path5361"
       style="fill:#ebebeb;fill-opacity:1;stroke:#000000;stroke-width:1;stroke-linecap:round;stroke-linejoin:round;stroke-miterlimit:13.60000038;stroke-dasharray:none;stroke-opacity:1"
       d="M -9.9999994,-120 L -0.31689091,-103.22836 L 9.3662179,-86.456726 L -10,-86.456726 L -29.366219,-86.456727 L -19.683109,-103.22836 L -9.9999994,-120 z " />
    <path
       id="path5363"
       style="fill:none;fill-opacity:1;stroke:#000000;stroke-width:1;stroke-miterlimit:13.60000038;stroke-dasharray:none;stroke-opacity:1"
       transform="translate(-5,-19.5)"
       d="M 30,-122.63782 C 30,-108.8307 18.807119,-97.63782 5,-97.63782 C -8.8071187,-97.63782 -20,-108.8307 -20,-122.63782 C -20,-136.44494 -8.8071187,-147.63782 5,-147.63782 C 18.807119,-147.63782 30,-136.44494 30,-122.63782 z " />
    <rect
       id="rect5365"
       style="fill:#ffffff;fill-opacity:1;stroke:#ffffff;stroke-width:0.64485782;stroke-miterlimit:13.60000038;stroke-dasharray:none;stroke-opacity:1"
       y="-167.63782"
       x="-39.5"
       ry="0"
       rx="9.500001"
       height="20.79208"
       width="60" />
    <rect
       id="rect5367"
       style="fill:#ffffff;fill-opacity:1;stroke:#ffffff;stroke-width:0.562325;stroke-miterlimit:13.60000038;stroke-dasharray:none;stroke-opacity:1"
       y="-167.32918"
       x="9.3083973"
       ry="9.500001"
       rx="9.500001"
       height="49.382717"
       width="20.490368" />
  </g>
  <path
     d="M 345.2012,156.18108 C 345.2012,169.9882 334.00832,181.18108 320.2012,181.18108 C 306.39408,181.18108 295.2012,169.9882 295.2012,156.18108 C 295.2012,142.37396 306.39408,131.18108 320.2012,131.18108 C 334.00832,131.18108 345.2012,142.37396 345.2012,156.18108 z "
     style="fill:none;fill-opacity:1;stroke:#000000;stroke-width:1;stroke-miterlimit:13.60000038;stroke-dasharray:none;stroke-opacity:1"
     id="path1328" />
  <g
     id="g4158">
    <path
       id="path1324"
       style="fill:#ebebeb;fill-opacity:1;stroke:#000000;stroke-width:1;stroke-linecap:round;stroke-linejoin:round;stroke-miterlimit:13.60000038;stroke-dasharray:none;stroke-opacity:1"
       d="M 310.2012,178.3189 L 319.88431,195.09054 L 329.56742,211.86217 L 310.2012,211.86217 L 290.83498,211.86217 L 300.51809,195.09054 L 310.2012,178.3189 z " />
    <rect
       id="rect2203"
       style="fill:#ffffff;fill-opacity:1;stroke:#ffffff;stroke-width:0.64485782;stroke-miterlimit:13.60000038;stroke-dasharray:none;stroke-opacity:1"
       y="130.68108"
       x="280.7012"
       ry="0"
       rx="9.500001"
       height="20.79208"
       width="60" />
  </g>
  <rect
     width="20.490368"
     height="49.382717"
     rx="9.500001"
     ry="9.500001"
     x="329.50958"
     y="130.98972"
     style="fill:#ffffff;fill-opacity:1;stroke:#ffffff;stroke-width:0.562325;stroke-miterlimit:13.60000038;stroke-dasharray:none;stroke-opacity:1"
     id="rect2205" />
  <path
     style="fill:none;fill-opacity:0.75;fill-rule:evenodd;stroke:#000000;stroke-width:0.92322397px;stroke-linecap:butt;stroke-linejoin:miter;marker-end:url(#Arrow1Lend);stroke-opacity:1"
     d="M 214.48947,306.06967 L 436.06322,10.63799"
     id="path3257" />
  <text
     xml:space="preserve"
     style="font-size:12px;font-style:normal;font-weight:normal;fill:#000000;fill-opacity:1;stroke:none;stroke-width:1px;stroke-linecap:butt;stroke-linejoin:miter;stroke-opacity:1;font-family:Bitstream Vera Sans"
     x="163.69788"
     y="435.56406"
     id="text3265"
     transform="matrix(0.615087,-0.788459,0.788459,0.615087,0,0)"><tspan
       sodipodi:role="line"
       id="tspan3267"
       x="163.69788"
       y="435.56406">Direction of the radio source</tspan></text>
  <path
     style="fill:none;fill-opacity:0.75;fill-rule:evenodd;stroke:#000000;stroke-width:0.9124217px;stroke-linecap:butt;stroke-linejoin:miter;stroke-opacity:1"
     d="M 448.05903,481.20152 L 156.08407,262.22029"
     id="path3117" />
  <path
     style="fill:none;fill-opacity:0.75;fill-rule:evenodd;stroke:#000000;stroke-width:1.08805299px;stroke-linecap:butt;stroke-linejoin:miter;marker-end:url(#Arrow1Lend);stroke-opacity:1"
     d="M 288.24601,360.76443 L 549.37873,12.587449"
     id="path3119" />
  <path
     style="fill:none;fill-opacity:0.75;fill-rule:evenodd;stroke:#000000;stroke-width:0.84225535px;stroke-linecap:butt;stroke-linejoin:miter;marker-end:url(#Arrow1Lend);stroke-opacity:1"
     d="M 391.82371,438.90061 L 593.965,169.37889"
     id="path3121" />
  <text
     xml:space="preserve"
     style="font-size:11.99999332px;font-style:normal;font-weight:normal;fill:#000000;fill-opacity:1;stroke:none;stroke-width:1px;stroke-linecap:butt;stroke-linejoin:miter;stroke-opacity:1;font-family:Bitstream Vera Sans"
     x="11.307768"
     y="547.9328"
     id="text3127"
     transform="matrix(0.615606,-0.788054,0.788054,0.615606,0,0)"><tspan
       sodipodi:role="line"
       id="tspan3129"
       x="11.307768"
       y="547.9328">Delay</tspan></text>
  <path
     style="font-size:12px;font-style:normal;font-weight:normal;fill:#000000;fill-opacity:1;stroke:none;stroke-width:1px;stroke-linecap:butt;stroke-linejoin:miter;stroke-opacity:1;font-family:Bitstream Vera Sans"
     d="M 542.54136,226.8681 C 528.41982,231.39785 520.68484,245.26629 511.39962,255.92457 C 496.99416,274.18083 484.6559,294.74082 466.22665,309.20732 C 462.5041,311.71663 457.86992,313.36614 453.33249,312.36469 C 450.52835,315.83493 447.31086,319.35123 445.44968,323.24942 C 449.76784,332.53482 443.54116,342.30652 439.12508,350.24352 C 424.75729,374.70733 403.96988,394.98489 391.09483,420.29528 C 388.75182,425.4737 385.986,433.08036 391.57605,437.20669 C 393.56487,434.13543 397.32204,431.23006 398.12978,427.85729 C 393.05385,422.6045 394.49663,414.01272 399.13135,408.96589 C 414.53391,384.0767 436.28927,363.0446 448.06199,335.99026 C 450.24707,330.24499 451.12852,323.94312 449.66605,317.93308 C 464.47161,317.25551 473.98949,304.22959 483.00768,294.19294 C 498.58131,276.59561 510.96305,256.03294 527.53189,239.33396 C 531.36981,236.616 536.77531,235.92339 541.00602,238.21112 C 542.92355,234.91847 546.07449,231.94315 547.85769,228.90755 C 546.2827,227.93354 544.39066,226.99637 542.54136,226.8681 z "
     id="path3146" />
  <path
     style="font-size:12px;font-style:normal;font-weight:normal;fill:#000000;fill-opacity:1;stroke:none;stroke-width:1px;stroke-linecap:butt;stroke-linejoin:miter;stroke-opacity:1;font-family:Bitstream Vera Sans"
     d="M 287.83456,356.81323 C 286.25515,351.88942 281.41959,349.19243 277.70332,345.95491 C 271.33783,340.9321 264.16909,336.63007 259.125,330.20426 C 258.25007,328.9063 257.67492,327.29049 258.0241,325.7084 C 256.81412,324.73067 255.58808,323.60881 254.22888,322.95987 C 250.9913,324.4655 247.58416,322.29442 244.81673,320.75464 C 236.28683,315.74497 229.21657,308.49693 220.39149,304.00773 C 218.58591,303.19079 215.93366,302.22642 214.49492,304.17552 C 215.56579,304.86897 216.57882,306.179 217.75481,306.46064 C 219.58633,304.69079 222.58206,305.19385 224.34176,306.80986 C 233.01998,312.18034 240.35333,319.76587 249.78648,323.87071 C 251.7897,324.63259 253.987,324.93993 256.08255,324.43001 C 256.3188,329.59232 260.8606,332.91096 264.36012,336.05537 C 270.49586,341.4855 277.66553,345.80269 283.48804,351.57982 C 284.43572,352.918 284.67721,354.80276 283.87954,356.2779 C 285.0276,356.94649 286.06502,358.04514 287.12346,358.6669 C 287.46307,358.11774 287.78984,357.45804 287.83456,356.81323 z "
     id="path3148" />
  <text
     xml:space="preserve"
     style="font-size:11.99998856px;font-style:normal;font-weight:normal;fill:#000000;fill-opacity:1;stroke:none;stroke-width:1px;stroke-linecap:butt;stroke-linejoin:miter;stroke-opacity:1;font-family:Bitstream Vera Sans"
     x="381.10239"
     y="93.835854"
     id="text3150"
     transform="matrix(0.788054,0.615606,-0.615606,0.788054,0,0)"><tspan
       sodipodi:role="line"
       id="tspan3152"
       x="381.10239"
       y="93.835854">Baseline</tspan></text>
  <g
     id="g3158"
     transform="matrix(0.795373,0.60612,-0.60612,0.795373,397.7609,309.1939)">
    <path
       id="path3154"
       d="M -50.423224,92.418163 L -50.423224,101.93198"
       style="fill:none;fill-opacity:0.75;fill-rule:evenodd;stroke:#000000;stroke-width:1px;stroke-linecap:butt;stroke-linejoin:miter;stroke-opacity:1" />
    <path
       id="path3156"
       d="M -39.958027,101.93198 L -51.374606,101.93198"
       style="fill:none;fill-opacity:0.75;fill-rule:evenodd;stroke:#000000;stroke-width:1px;stroke-linecap:butt;stroke-linejoin:miter;stroke-opacity:1" />
  </g>
  <text
     xml:space="preserve"
     style="font-size:12px;font-style:normal;font-weight:normal;fill:#000000;fill-opacity:1;stroke:none;stroke-width:1px;stroke-linecap:butt;stroke-linejoin:miter;stroke-opacity:1;font-family:Bitstream Vera Sans"
     x="174.10284"
     y="408.27686"
     id="text3162"><tspan
       sodipodi:role="line"
       x="174.10284"
       y="408.27686"
       id="tspan4136">Reference plane </tspan><tspan
       sodipodi:role="line"
       x="174.10284"
       y="423.27686"
       id="tspan4140">orthogonal to the viewing direction</tspan><tspan
       sodipodi:role="line"
       x="174.10284"
       y="438.27686"
       id="tspan4142">through the center of the earth</tspan></text>
  <text
     xml:space="preserve"
     style="font-size:12px;font-style:normal;font-weight:normal;fill:#000000;fill-opacity:1;stroke:none;stroke-width:1px;stroke-linecap:butt;stroke-linejoin:miter;stroke-opacity:1;font-family:Bitstream Vera Sans"
     x="567.97479"
     y="399.71442"
     id="text3170"><tspan
       sodipodi:role="line"
       id="tspan3172"
       x="567.97479"
       y="399.71442">Earth</tspan></text>
  <path
     style="fill:none;fill-opacity:0.75;fill-rule:evenodd;stroke:#000000;stroke-width:0.83287984px;stroke-linecap:butt;stroke-linejoin:miter;marker-start:none;marker-end:url(#Arrow1Lend);stroke-opacity:1"
     d="M 266.24299,406.38803 L 305.35558,387.17252"
     id="path3174" />
</svg>
